<?xml version="1.0" ?><!DOCTYPE svg  PUBLIC '-//W3C//DTD SVG 1.1//EN'  'http://www.w3.org/Graphics/SVG/1.1/DTD/svg11.dtd'><svg enable-background="new 0 0 800 800" height="800px" id="GUIDE" version="1.1" viewBox="0 0 800 800" width="800px" xml:space="preserve" xmlns="http://www.w3.org/2000/svg" xmlns:cc="http://creativecommons.org/ns#" xmlns:dc="http://purl.org/dc/elements/1.1/" xmlns:inkscape="http://www.inkscape.org/namespaces/inkscape" xmlns:rdf="http://www.w3.org/1999/02/22-rdf-syntax-ns#" xmlns:sodipodi="http://sodipodi.sourceforge.net/DTD/sodipodi-0.dtd" xmlns:svg="http://www.w3.org/2000/svg" xmlns:xlink="http://www.w3.org/1999/xlink"><path d="M759.729,744.456c-51.143-37.324-107.424-66.316-167.28-86.172c-26.754-8.874-54.043-15.854-81.722-20.922  c41.42-15.554,79.406-39.899,111.627-72.119c59.394-59.395,92.104-138.361,92.104-222.356c0-83.995-32.71-162.963-92.104-222.356  c-59.395-59.394-138.36-92.103-222.356-92.103c-83.994,0-162.962,32.709-222.355,92.103S85.539,258.892,85.539,342.887  c0,83.995,32.71,162.963,92.104,222.356c32.22,32.22,70.208,56.565,111.626,72.119c-27.677,5.067-54.965,12.048-81.718,20.922  c-59.857,19.854-116.138,48.848-167.28,86.172c-5.244,3.827-7.431,10.594-5.418,16.767c2.013,6.174,7.769,10.351,14.261,10.351  h701.772c6.492,0,12.248-4.177,14.262-10.351C767.161,755.05,764.974,748.283,759.729,744.456z M115.539,342.887  c0-156.851,127.608-284.459,284.459-284.459c156.852,0,284.46,127.608,284.46,284.459c0,156.853-127.608,284.459-284.46,284.459  C243.147,627.346,115.539,499.738,115.539,342.887z M98.54,741.572c90.644-55.246,193.91-84.228,301.458-84.228  c107.551,0,210.819,28.98,301.462,84.228H98.54z" fill="#08213D"/><path d="M399.998,172.755c-93.811,0-170.131,76.321-170.131,170.132c0,93.812,76.32,170.133,170.131,170.133  c93.811,0,170.132-76.322,170.132-170.133S493.809,172.755,399.998,172.755z M361.18,230.695c40.457,0,73.371,32.914,73.371,73.372  c0,40.458-32.914,73.372-73.371,73.372c-40.457,0-73.371-32.915-73.371-73.372C287.809,263.609,320.723,230.695,361.18,230.695z   M399.998,483.019c-77.269,0-140.131-62.862-140.131-140.132c0-4.982,0.266-9.904,0.775-14.755  c10.875,45.432,51.821,79.308,100.537,79.308c56.999,0,103.371-46.373,103.371-103.372c0-48.715-33.875-89.661-79.304-100.536  c4.849-0.51,9.77-0.776,14.751-0.776c77.27,0,140.132,62.863,140.132,140.132C540.13,420.155,477.268,483.019,399.998,483.019z" fill="#08213D"/></svg>